REM DIRINDEX 1\2\3,1\2\4,1\2\5,1\2\6
REM DIRNAME folder01,folder02,folder03,folder04,folder05,folder06
TITLE ""
FILE "135 135.mp3" MP3
  TRACK 01 AUDIO
    TITLE "0:"
    INDEX 01 00:00:00
  TRACK 02 AUDIO
    TITLE "3:cjc157_5052"
    INDEX 01 00:00:11
  TRACK 03 AUDIO
    TITLE "0:"
    INDEX 01 00:01:44
  TRACK 04 AUDIO
    TITLE "4:cjc157_5053"
    INDEX 01 00:02:18
  TRACK 05 AUDIO
    TITLE "0:"
    INDEX 01 00:03:29
  TRACK 06 AUDIO
    TITLE "5:cjc157_5054"
    INDEX 01 00:04:05
  TRACK 07 AUDIO
    TITLE "0:"
    INDEX 01 00:06:06
  TRACK 08 AUDIO
    TITLE "5:cjc157_5055"
    INDEX 01 00:06:57
  TRACK 09 AUDIO
    TITLE "0:"
    INDEX 01 00:08:66
  TRACK 10 AUDIO
    TITLE "3:cjc157_5056"
    INDEX 01 00:09:32
  TRACK 11 AUDIO
    TITLE "0:"
    INDEX 01 00:10:55
  TRACK 12 AUDIO
    TITLE "4:cjc157_5057"
    INDEX 01 00:11:27
  TRACK 13 AUDIO
    TITLE "0:"
    INDEX 01 00:12:46
  TRACK 14 AUDIO
    TITLE "5:cjc157_5058"
    INDEX 01 00:13:18
  TRACK 15 AUDIO
    TITLE "0:"
    INDEX 01 00:15:70
  TRACK 16 AUDIO
    TITLE "3:cjc157_5059"
    INDEX 01 00:16:48
  TRACK 17 AUDIO
    TITLE "0:"
    INDEX 01 00:17:45
  TRACK 18 AUDIO
    TITLE "4:cjc157_5060"
    INDEX 01 00:18:13
  TRACK 19 AUDIO
    TITLE "0:"
    INDEX 01 00:19:20
  TRACK 20 AUDIO
    TITLE "5:cjc157_5061"
    INDEX 01 00:19:69
  TRACK 21 AUDIO
    TITLE "0:"
    INDEX 01 00:22:05
  TRACK 22 AUDIO
    TITLE "5:cjc157_5062"
    INDEX 01 00:22:58
  TRACK 23 AUDIO
    TITLE "0:"
    INDEX 01 00:24:72
  TRACK 24 AUDIO
    TITLE "5:cjc157_5063"
    INDEX 01 00:25:45
  TRACK 25 AUDIO
    TITLE "0:"
    INDEX 01 00:27:24
  TRACK 26 AUDIO
    TITLE "3:cjc157_5064"
    INDEX 01 00:27:71
  TRACK 27 AUDIO
    TITLE "0:"
    INDEX 01 00:29:27
  TRACK 28 AUDIO
    TITLE "4:cjc157_5065"
    INDEX 01 00:29:74
  TRACK 29 AUDIO
    TITLE "0:"
    INDEX 01 00:31:22
  TRACK 30 AUDIO
    TITLE "5:cjc157_5066"
    INDEX 01 00:31:63
  TRACK 31 AUDIO
    TITLE "0:"
    INDEX 01 00:33:56
  TRACK 32 AUDIO
    TITLE "5:cjc157_5067"
    INDEX 01 00:34:26
  TRACK 33 AUDIO
    TITLE "0:"
    INDEX 01 00:37:28
  TRACK 34 AUDIO
    TITLE "3:cjc157_5068"
    INDEX 01 00:38:02
  TRACK 35 AUDIO
    TITLE "0:"
    INDEX 01 00:38:71
  TRACK 36 AUDIO
    TITLE "4:cjc157_5069"
    INDEX 01 00:39:41
  TRACK 37 AUDIO
    TITLE "0:"
    INDEX 01 00:40:46
  TRACK 38 AUDIO
    TITLE "5:cjc157_5070"
    INDEX 01 00:41:18
  TRACK 39 AUDIO
    TITLE "0:"
    INDEX 01 00:43:29
  TRACK 40 AUDIO
    TITLE "3:cjc157_5071"
    INDEX 01 00:43:70
  TRACK 41 AUDIO
    TITLE "0:"
    INDEX 01 00:45:16
  TRACK 42 AUDIO
    TITLE "4:cjc157_5072"
    INDEX 01 00:45:63
  TRACK 43 AUDIO
    TITLE "0:"
    INDEX 01 00:46:70
  TRACK 44 AUDIO
    TITLE "5:cjc157_5073"
    INDEX 01 00:47:44
  TRACK 45 AUDIO
    TITLE "0:"
    INDEX 01 00:49:63
  TRACK 46 AUDIO
    TITLE "5:cjc157_5074"
    INDEX 01 00:50:35
  TRACK 47 AUDIO
    TITLE "0:"
    INDEX 01 00:52:61
  TRACK 48 AUDIO
    TITLE "3:cjc157_5075"
    INDEX 01 00:53:29
  TRACK 49 AUDIO
    TITLE "0:"
    INDEX 01 00:54:30
  TRACK 50 AUDIO
    TITLE "4:cjc157_5076"
    INDEX 01 00:54:72
  TRACK 51 AUDIO
    TITLE "0:"
    INDEX 01 00:56:00
  TRACK 52 AUDIO
    TITLE "5:cjc157_5077"
    INDEX 01 00:56:43
  TRACK 53 AUDIO
    TITLE "0:"
    INDEX 01 00:59:10
  TRACK 54 AUDIO
    TITLE "3:cjc157_5078"
    INDEX 01 00:59:57
  TRACK 55 AUDIO
    TITLE "0:"
    INDEX 01 01:01:05
  TRACK 56 AUDIO
    TITLE "4:cjc157_5079"
    INDEX 01 01:01:54
  TRACK 57 AUDIO
    TITLE "0:"
    INDEX 01 01:02:57
  TRACK 58 AUDIO
    TITLE "5:cjc157_5080"
    INDEX 01 01:03:29
  TRACK 59 AUDIO
    TITLE "0:"
    INDEX 01 01:07:49
  TRACK 60 AUDIO
    TITLE "3:cjc157_5081"
    INDEX 01 01:08:21
  TRACK 61 AUDIO
    TITLE "0:"
    INDEX 01 01:09:52
  TRACK 62 AUDIO
    TITLE "4:cjc157_5082"
    INDEX 01 01:10:24
  TRACK 63 AUDIO
    TITLE "0:"
    INDEX 01 01:11:35
  TRACK 64 AUDIO
    TITLE "5:cjc157_5083"
    INDEX 01 01:12:07
  TRACK 65 AUDIO
    TITLE "0:"
    INDEX 01 01:14:10
  TRACK 66 AUDIO
    TITLE "5:cjc157_5084"
    INDEX 01 01:14:57
  TRACK 67 AUDIO
    TITLE "0:"
    INDEX 01 01:16:61
  TRACK 68 AUDIO
    TITLE "3:cjc157_5085"
    INDEX 01 01:17:33
  TRACK 69 AUDIO
    TITLE "0:"
    INDEX 01 01:18:43
  TRACK 70 AUDIO
    TITLE "4:cjc157_5086"
    INDEX 01 01:19:13
  TRACK 71 AUDIO
    TITLE "0:"
    INDEX 01 01:20:28
  TRACK 72 AUDIO
    TITLE "5:cjc157_5087"
    INDEX 01 01:21:00
  TRACK 73 AUDIO
    TITLE "0:"
    INDEX 01 01:22:62
  TRACK 74 AUDIO
    TITLE "5:cjc157_5088"
    INDEX 01 01:23:32
  TRACK 75 AUDIO
    TITLE "0:"
    INDEX 01 01:25:47
